<svg width="13" height="22" viewBox="0 0 13 22" fill="none" xmlns="http://www.w3.org/2000/svg">
<g clip-path="url(#clip0_9_1037)">
<path d="M7.538 21.4997H4.095C3.81846 21.4995 3.55332 21.3895 3.35778 21.1939C3.16224 20.9984 3.05226 20.7333 3.052 20.4567V12.6907H1.043C0.76646 12.6905 0.501323 12.5805 0.30578 12.3849C0.110237 12.1894 0.000264758 11.9243 0 11.6477V8.31972C0.000264758 8.04318 0.110237 7.77804 0.30578 7.5825C0.501323 7.38696 0.76646 7.27699 1.043 7.27672H3.052V5.61072C2.99457 4.11064 3.53395 2.64894 4.552 1.54572C5.07594 1.03052 5.69952 0.627678 6.38456 0.361847C7.0696 0.0960163 7.80168 -0.0272069 8.536 -0.00027885H11.162C11.4384 0.00130833 11.7028 0.112413 11.8974 0.308678C12.092 0.504943 12.2008 0.770352 12.2 1.04672V4.13672C12.1997 4.41326 12.0898 4.6784 11.8942 4.87394C11.6987 5.06948 11.4335 5.17946 11.157 5.17972H9.393C8.854 5.17972 8.717 5.28772 8.687 5.32072C8.639 5.37572 8.581 5.53072 8.581 5.95972V7.27672H11.028C11.2083 7.27578 11.3859 7.32087 11.544 7.40772C11.7065 7.49833 11.8418 7.63058 11.9362 7.79087C12.0306 7.95117 12.0806 8.13371 12.081 8.31972V11.6477C12.0807 11.9243 11.9708 12.1894 11.7752 12.3849C11.5797 12.5805 11.3145 12.6905 11.038 12.6907H8.581V20.4567C8.58074 20.7333 8.47076 20.9984 8.27522 21.1939C8.07968 21.3895 7.81454 21.4995 7.538 21.4997ZM4.312 20.2397H7.32V12.1257C7.32 11.9401 7.39375 11.762 7.52503 11.6307C7.6563 11.4995 7.83435 11.4257 8.02 11.4257H10.82V8.53772H8.02C7.83435 8.53772 7.6563 8.46397 7.52503 8.3327C7.39375 8.20142 7.32 8.02337 7.32 7.83772V5.96072C7.27471 5.43453 7.42495 4.91011 7.742 4.48772C7.96155 4.28223 8.22201 4.12542 8.50635 4.02754C8.79069 3.92966 9.09249 3.89292 9.392 3.91972H10.942V1.26372H8.535C7.95988 1.22579 7.38338 1.31326 6.84539 1.52007C6.3074 1.72688 5.82076 2.04811 5.41915 2.46152C5.01753 2.87493 4.71052 3.37065 4.51936 3.9144C4.3282 4.45815 4.25744 5.03694 4.312 5.61072V7.84072C4.312 8.02637 4.23825 8.20442 4.10697 8.3357C3.9757 8.46697 3.79765 8.54072 3.612 8.54072H1.261V11.4297H3.616C3.80165 11.4297 3.9797 11.5035 4.11097 11.6347C4.24225 11.766 4.316 11.9441 4.316 12.1297L4.312 20.2397Z" fill="#C6C6C6"/>
</g>
<defs>
<clipPath id="clip0_9_1037">
<rect width="12.203" height="21.5" fill="white"/>
</clipPath>
</defs>
</svg>
