<svg width="45" height="44" viewBox="0 0 45 44" fill="none" xmlns="http://www.w3.org/2000/svg">
<rect width="45" height="44" fill="#7D7D7D"/>
<g id="Main" clip-path="url(#clip0_0_1)">
<rect width="1852" height="3754" transform="translate(-738 -1124)" fill="white"/>
<g id="Group 40588">
<g id="Group 11366">
<rect id="Rectangle 2754" x="-130" y="-18" width="306" height="297" rx="18" fill="url(#paint0_linear_0_1)" fill-opacity="0.7"/>
<circle id="Ellipse 75" cx="22.5" cy="22.5" r="55.75" stroke="#0D3A66" stroke-opacity="0.3" stroke-width="1.5"/>
<circle id="Ellipse 77" cx="22.5" cy="22.5" r="65.9" stroke="#0D3A66" stroke-opacity="0.15" stroke-width="1.2"/>
<circle id="Ellipse 78" cx="22.5" cy="22.5" r="76" stroke="#0D3A66" stroke-opacity="0.05"/>
<circle id="Ellipse 76" cx="22.5" cy="22.5" r="48.5" fill="#0D3A66"/>
<g id="24405 1" clip-path="url(#clip1_0_1)">
<g id="#121111ff">
<path id="Vector" d="M1.12541 4.2314L1.12537 4.23133C1.08111 4.26475 1.03196 4.32755 1.00226 4.42316C1.25856 5.63068 1.55544 6.83312 1.88387 8.02845C2.3817 9.76039 3.09379 11.3587 4.29559 12.496L4.3022 12.5023L4.30217 12.5023C4.33402 12.533 4.37018 12.5672 4.40949 12.6043C4.58801 12.7731 4.83163 13.0034 5.03179 13.2477C5.29105 13.5642 5.55804 13.993 5.63861 14.5493C5.71158 15.025 5.56799 15.4195 5.41907 15.6921C5.30031 15.9096 5.14031 16.1114 5.04978 16.2256C5.03672 16.2421 5.02511 16.2568 5.01527 16.2694L5.01138 16.2744L5.01137 16.2743C4.52889 16.885 4.25787 17.4745 4.27688 18.006L4.27724 18.0162L4.27719 18.0162C4.28611 18.3656 4.4798 18.7709 4.85196 19.1831C5.22678 19.5869 5.66529 19.9478 6.16009 20.3285C6.27979 20.4206 6.40501 20.5154 6.53354 20.6128C6.91139 20.899 7.31777 21.2068 7.69615 21.5297C8.35574 22.0515 9.04084 22.7436 9.43326 23.6601C9.70524 24.2727 9.79954 24.8991 9.86815 25.4032C9.87565 25.4582 9.88285 25.5118 9.88986 25.5639C9.95251 26.03 10.0003 26.3851 10.1119 26.7234L10.1135 26.7282C10.2702 27.2112 10.4426 27.4823 10.631 27.6105C10.6469 27.6138 10.687 27.6189 10.768 27.6135C10.84 27.6088 10.9233 27.5977 11.0364 27.5797C11.0586 27.5762 11.0833 27.5722 11.1099 27.5679C11.198 27.5535 11.3064 27.5359 11.4082 27.5227C12.5823 27.3482 13.9964 27.5317 15.0538 28.4461L15.0558 28.4478C15.6424 28.9579 16.0785 29.5529 16.444 30.1069C16.5952 30.336 16.7265 30.5447 16.8511 30.7426C17.052 31.0619 17.2353 31.3531 17.4559 31.6572C18.6336 33.2735 20.108 34.6655 21.856 35.5321L21.8648 35.5365L21.8735 35.5411C23.0916 36.1752 24.4942 36.457 25.8231 36.2728L25.8363 36.271L25.8495 36.2695C26.2137 36.2289 26.5637 36.1577 26.9621 36.0767C27.0853 36.0516 27.213 36.0256 27.3473 35.9993C27.8842 35.8941 28.4966 35.7909 29.1458 35.8037C29.8396 35.8121 30.5007 36.0332 31.0515 36.3863C32.0436 37.0215 32.6408 38.0113 33.0842 38.7463L33.1069 38.784C33.1073 38.7847 33.1078 38.7854 33.1082 38.7861C33.3158 39.1229 33.7954 39.3661 34.547 39.5156C35.4131 39.6649 36.3034 39.7063 37.2564 39.7365C37.3613 39.7398 37.4671 39.743 37.5738 39.7463C38.4202 39.7718 39.3195 39.7989 40.2132 39.9076C40.4403 39.9348 40.6157 39.9628 40.7675 39.987C40.9445 40.0153 41.0893 40.0384 41.2466 40.0492C41.275 39.9337 41.2977 39.7844 41.3279 39.5648L41.332 39.5347C41.3733 39.2329 41.4362 38.7726 41.6502 38.3281C41.8363 37.937 42.1252 37.6925 42.3288 37.5428C42.4184 37.4769 42.5112 37.4157 42.5794 37.3708C42.5879 37.3652 42.596 37.3598 42.6036 37.3548C42.6829 37.3024 42.7308 37.2695 42.7687 37.24L42.7836 37.2284L42.7989 37.2173C42.9773 37.0886 43.1419 36.8658 43.3172 36.5116C43.618 35.8955 43.8131 35.2177 43.9167 34.5129V34.1737C43.8162 33.9434 43.6804 33.7712 43.5277 33.6624L43.517 33.6549L43.5066 33.647C43.2909 33.4847 43.0665 33.3265 42.8281 33.1593L42.7743 33.1216C42.5558 32.9685 42.3253 32.8069 42.0986 32.6394C41.6073 32.2764 41.0929 31.8562 40.643 31.3313L40.637 31.3243L40.637 31.3243C40.1536 30.7496 39.7702 29.9193 39.8892 29.0003C40.0234 27.9301 40.6911 27.1114 41.2212 26.5576L41.23 26.5484L41.2301 26.5484C41.4423 26.3323 41.544 26.1841 41.5885 26.0793C41.557 26.0693 41.5232 26.0587 41.4862 26.0471C41.4333 26.0305 41.3739 26.0118 41.306 25.99C41.0725 25.9149 40.7461 25.8024 40.4308 25.5926C39.6318 25.102 39.1819 24.26 39.0802 23.4339C39.0178 22.9533 39.0245 22.4577 39.0301 22.0496C39.0312 21.9627 39.0324 21.8797 39.0328 21.8017C39.0352 21.3147 39.0143 20.9418 38.9135 20.6051C38.512 19.2665 38.8735 17.9399 39.2365 16.9399M1.12541 4.2314L40.1767 17.2803M1.12541 4.2314L1.13546 4.22361M1.12541 4.2314L1.13546 4.22361M39.2365 16.9399C39.2365 16.9396 39.2367 16.9394 39.2368 16.9391L40.1767 17.2803M39.2365 16.9399C39.2364 16.9402 39.2363 16.9405 39.2362 16.9407L40.1767 17.2803M39.2365 16.9399C39.3215 16.7044 39.406 16.4784 39.4877 16.2596C39.8494 15.2919 40.1583 14.4655 40.2328 13.5743M40.1767 17.2803C40.2518 17.0723 40.3298 16.8646 40.4079 16.6565C40.774 15.6807 41.1427 14.6981 41.2295 13.6555M40.2328 13.5743C40.2327 13.5748 40.2327 13.5753 40.2327 13.5757L41.2295 13.6555M40.2328 13.5743C40.2448 13.4244 40.2728 13.212 40.2939 13.0519C40.304 12.9749 40.3126 12.91 40.317 12.8701C40.3382 12.6779 40.3385 12.557 40.3233 12.4634M40.2328 13.5743C40.2328 13.5738 40.2329 13.5732 40.2329 13.5726L41.2295 13.6555M41.2295 13.6555L40.3233 12.4634M40.3233 12.4634L41.3102 12.302L40.3232 12.4629C40.3232 12.463 40.3233 12.4632 40.3233 12.4634ZM40.3233 12.4634C40.3064 12.3599 40.2173 12.2036 40.027 12.0859L40.0151 12.0786L40.0152 12.0785C39.6852 11.8679 39.303 11.7147 38.8268 11.5425C38.7676 11.5211 38.7063 11.4992 38.6433 11.4766C38.2317 11.3295 37.7474 11.1564 37.2925 10.9228L37.2892 10.9211C36.9123 10.7257 36.5785 10.4942 36.2916 10.2887C36.2317 10.2458 36.1743 10.2044 36.1188 10.1644C35.8938 10.002 35.7 9.86219 35.4929 9.73341L35.4857 9.72888L35.4784 9.72422C34.0018 8.77031 32.3506 8.11989 30.6709 8.05561L30.6647 8.05538V8.05536C28.987 7.98066 27.2858 8.50097 25.7852 9.38011L25.7743 9.38647L25.7633 9.39255C25.4299 9.57679 25.115 9.7886 24.758 10.0287C24.7003 10.0675 24.6416 10.107 24.5816 10.1472C24.1675 10.4246 23.6982 10.7304 23.1743 10.9773C21.4219 11.8121 19.4523 11.9939 17.6257 11.7783L17.6124 11.7767L17.6124 11.7766C15.4328 11.4897 13.2636 10.6067 11.6006 9.0738L11.5998 9.073C10.5591 8.11148 9.72503 6.85091 9.38292 5.40796C9.32207 5.19249 9.26622 4.93807 9.22044 4.72954C9.19897 4.63175 9.17972 4.54406 9.16321 4.4752C9.12112 4.2997 9.0795 4.15719 9.03199 4.0362M40.3233 12.4634L9.03199 4.0362M1.13546 4.22361C1.28931 4.10437 1.39473 4.03005 1.48561 3.98349C1.50963 4.01101 1.53804 4.04543 1.57421 4.09058C1.58327 4.10188 1.59342 4.11464 1.60447 4.12854C1.65071 4.18667 1.71261 4.2645 1.77483 4.33663C2.41845 5.134 3.48476 5.9728 4.84375 5.94378L4.84533 5.94374M1.13546 4.22361L4.84533 5.94374M4.84533 5.94374C6.35173 5.90919 7.58251 5.0413 8.45349 4.4221C8.5194 4.37755 8.59467 4.32495 8.66069 4.27881C8.69728 4.25324 8.73103 4.22966 8.75876 4.21053C8.85478 4.14432 8.93408 4.0923 9.00764 4.04997C9.01597 4.04517 9.02408 4.04059 9.03199 4.0362M4.84533 5.94374L9.03199 4.0362M10.6294 27.6112L10.1413 28.484L10.6252 27.6091C10.6263 27.6096 10.6278 27.6103 10.6294 27.6112ZM0 4.51689H1V4.43063C0.994103 4.45063 0.989055 4.47203 0.985067 4.49485L0 4.51689ZM1.58018 3.94677C1.58017 3.9468 1.57955 3.94689 1.57838 3.94694L1.58018 3.94677ZM17.743 10.7852C19.4317 10.9845 21.2029 10.8092 22.7461 10.0736L17.743 10.7852Z" stroke="white" stroke-width="2"/>
</g>
</g>
</g>
</g>
</g>
<defs>
<linearGradient id="paint0_linear_0_1" x1="23" y1="205.967" x2="23" y2="-63.0369" gradientUnits="userSpaceOnUse">
<stop stop-color="#E4E4E4"/>
<stop offset="1" stop-color="#DFDFDF" stop-opacity="0"/>
</linearGradient>
<clipPath id="clip0_0_1">
<rect width="1852" height="3754" fill="white" transform="translate(-738 -1124)"/>
</clipPath>
<clipPath id="clip1_0_1">
<rect width="44.9167" height="44" fill="white"/>
</clipPath>
</defs>
</svg>
