<svg width="43" height="43" viewBox="0 0 43 43" fill="none" xmlns="http://www.w3.org/2000/svg">
<g id="free-customers-11-866159 1" clip-path="url(#clip0_14_1176)">
<g id="#000000ff">
<path id="Vector" d="M15.0769 3.75243C16.7263 1.9031 19.1871 0.791142 21.673 0.861689C24.043 0.891923 26.3509 1.99044 27.9231 3.75411C30.1285 3.09735 32.6145 3.48872 34.4974 4.81399C36.676 6.29884 37.9928 8.95106 37.8282 11.5865C37.7241 14.0456 36.3299 16.3702 34.2707 17.6989C36.6692 18.4463 38.7957 20.0219 40.205 22.103C41.4631 23.9389 42.1467 26.1611 42.1383 28.3884C42.1417 31.825 42.14 35.2617 42.14 38.6983C39.8472 38.7017 37.5544 38.6983 35.2617 38.7C35.2549 39.8472 35.2617 40.9928 35.2583 42.14C26.0872 42.14 16.9144 42.14 7.74167 42.14C7.73831 40.9928 7.74503 39.8472 7.73663 38.7C5.44553 38.6983 3.15276 38.7017 0.859985 38.6983C0.859985 35.26 0.859985 31.8217 0.861665 28.3834C0.856626 26.5324 1.32358 24.6813 2.21213 23.0571C3.58276 20.5157 5.97295 18.5522 8.731 17.7006C6.76913 16.4324 5.40186 14.2656 5.19694 11.9291C4.93659 9.47009 5.9612 6.92872 7.84245 5.3263C9.78249 3.61638 12.6027 3.01001 15.0769 3.75243ZM19.8892 2.77149C17.0656 3.4081 14.8518 6.00825 14.6485 8.89227C14.4285 11.269 15.574 13.7079 17.5342 15.0668C19.0392 16.1653 21.0095 16.5752 22.832 16.2107C24.5705 15.8731 26.1494 14.8182 27.1538 13.3636C28.1432 11.9409 28.5681 10.1319 28.2943 8.4186C27.9953 6.4181 26.7608 4.57716 25.0156 3.54751C23.4955 2.63208 21.6125 2.34821 19.8892 2.77149ZM11.2438 5.39349C8.8721 6.04185 7.04628 8.27247 6.89678 10.7315C6.66499 13.2729 8.26405 15.8243 10.6341 16.7549C12.428 17.5057 14.5629 17.2823 16.1905 16.2291C14.6418 14.9795 13.5064 13.2124 13.0999 11.2573C12.638 9.23325 13.0075 7.06813 13.9935 5.25407C13.0814 5.10458 12.134 5.1281 11.2438 5.39349ZM29.0065 5.25407C29.9287 6.96063 30.3217 8.97626 29.969 10.8945C29.6263 12.9874 28.4556 14.9039 26.8078 16.2291C28.7865 17.5275 31.5227 17.5242 33.4678 16.1653C35.7303 14.6889 36.7314 11.5999 35.7421 9.08208C34.7964 6.40298 31.7965 4.69306 29.0065 5.25407ZM11.5378 21.6226C10.2007 23.2838 9.45663 25.407 9.46167 27.5402C9.45831 31.8318 9.45999 36.125 9.46167 40.4183C17.4872 40.42 25.5128 40.42 33.5383 40.4183C33.54 36.1267 33.5417 31.8351 33.5383 27.5435C33.54 25.3666 32.769 23.1982 31.3782 21.5218C29.6398 19.3886 26.9338 18.0684 24.1774 18.0617C22.3885 18.0583 20.5997 18.0583 18.8125 18.0617C16.0141 18.0734 13.2729 19.434 11.5378 21.6226ZM5.54967 21.505C3.71545 23.2234 2.61022 25.6975 2.58334 28.2137C2.57159 31.1313 2.59006 34.049 2.57495 36.9666C4.29495 37.0002 6.01831 36.9733 7.73831 36.98C7.74503 33.7768 7.73495 30.5737 7.74335 27.3722C7.7719 24.1388 9.31217 20.9995 11.7729 18.9183C9.47342 18.9872 7.21424 19.9177 5.54967 21.505ZM31.2287 18.92C33.246 20.6417 34.6755 23.0604 35.0987 25.6875C35.3104 26.8028 35.2533 27.9416 35.26 29.0687C35.26 31.7058 35.2583 34.3429 35.2617 36.98C36.98 36.9817 38.7 36.9834 40.42 36.9783C40.4166 34.0557 40.425 31.1313 40.415 28.2087C40.3864 25.6539 39.2476 23.1461 37.3646 21.4261C35.7101 19.8841 33.4862 18.9872 31.2287 18.92Z" fill="white"/>
</g>
</g>
<defs>
<clipPath id="clip0_14_1176">
<rect width="43" height="43" fill="white"/>
</clipPath>
</defs>
</svg>
