<svg width="35" height="35" viewBox="0 0 35 35" fill="none" xmlns="http://www.w3.org/2000/svg">
<g id="rials 1">
<path id="Vector" d="M13.3565 7.4588C14.1018 7.21256 14.9696 7.82883 14.9603 8.61628C14.9696 12.6628 14.9617 16.7081 14.9643 20.7546C14.9867 22.0899 14.4442 23.4198 13.5066 24.3693C12.5664 25.349 11.2193 25.9152 9.86297 25.9178C8.35127 25.9297 6.85143 25.2305 5.89411 24.0585C5.10402 23.1025 4.67211 21.8542 4.71425 20.6137C4.71688 19.7367 4.71293 18.8597 4.71556 17.9814C4.68001 17.4033 5.0948 16.8226 5.66893 16.7041C6.39449 16.4842 7.19906 17.0926 7.22408 17.8432C7.2491 18.8992 7.20565 19.958 7.24515 21.014C7.30573 22.4823 8.83059 23.6635 10.2699 23.3764C11.4721 23.1947 12.4373 22.0912 12.461 20.8745C12.4676 16.7937 12.4571 12.7116 12.4663 8.63076C12.4545 8.09745 12.8548 7.60892 13.3565 7.4588Z" fill="white"/>
<path id="Vector_2" d="M17.0383 7.52725C17.8034 7.12957 18.8371 7.76164 18.8068 8.6281C18.8186 12.0544 18.8015 15.4808 18.816 18.9058C18.7975 19.8236 19.4981 20.6861 20.3962 20.8665C21.2653 21.0772 22.2107 20.5847 22.5992 19.792C22.8494 19.318 22.8006 18.7649 22.8033 18.2461C22.8059 17.2782 22.7941 16.3104 22.8072 15.3412C22.8217 14.8039 23.2431 14.3167 23.7646 14.1995C24.4835 13.9915 25.2894 14.5932 25.3026 15.3412C25.3171 16.5276 25.3039 17.7141 25.3092 18.8992C25.3223 19.9882 24.901 21.0693 24.1859 21.8871C23.2879 22.9168 21.9013 23.4936 20.5357 23.4014C18.654 23.3197 16.9277 21.9068 16.4668 20.083C16.2614 19.3983 16.314 18.6806 16.3088 17.9761C16.3088 14.9027 16.3101 11.8279 16.3088 8.75451C16.2732 8.24754 16.5708 7.73267 17.0383 7.52725Z" fill="white"/>
<path id="Vector_3" d="M27.4478 16.3591C28.1167 16.1273 28.8805 16.5777 29.0438 17.2572C29.7048 19.3864 29.9629 21.7765 29.0754 23.8807C28.4222 25.4609 26.9882 26.6328 25.3633 27.1122C24.826 27.2504 24.215 27.5256 23.6857 27.2149C23.0154 26.883 22.8126 25.9139 23.2946 25.3424C23.7028 24.7867 24.4665 24.8723 25.0288 24.5773C26.0375 24.1902 26.7762 23.2684 27.0014 22.2189C27.2911 20.8033 27.0843 19.3246 26.6366 17.9643C26.3864 17.323 26.796 16.5474 27.4478 16.3591Z" fill="white"/>
<path id="Vector_4" d="M17.2081 24.5615C17.9507 24.5615 18.6947 24.5602 19.4374 24.5628C19.4335 25.3108 19.4282 26.06 19.4414 26.808C18.6947 26.8053 17.9494 26.808 17.2041 26.8066C17.2107 26.0587 17.2054 25.3108 17.2081 24.5615Z" fill="white"/>
<path id="Vector_5" d="M20.0894 24.5615C20.8307 24.5615 21.5708 24.5615 22.3121 24.5615C22.3082 25.3094 22.3082 26.0574 22.3121 26.8066C21.5708 26.8079 20.8307 26.8079 20.0894 26.8066C20.0959 26.0587 20.0959 25.3094 20.0894 24.5615Z" fill="white"/>
</g>
</svg>
