<svg width="54" height="54" viewBox="0 0 54 54" fill="none" xmlns="http://www.w3.org/2000/svg">
<g id="universal 1">
<g id="#010101ff">
<path id="Vector" d="M24.756 47.9712C29.5224 48.468 34.4424 47.3208 38.4576 44.6952C42.828 41.88 46.0896 37.3992 47.3856 32.3592C48.312 28.8624 48.3096 25.1232 47.3808 21.6264C46.0944 16.6464 42.8856 12.2136 38.5896 9.3912C35.0064 7.03201 30.6888 5.77921 26.3952 5.94001C21.0768 6.05521 15.8304 8.31841 12.0936 12.1104C8.82003 15.3192 6.71283 19.6704 6.10563 24.2064C5.42643 29.1912 6.61203 34.4016 9.39603 38.5944C12.7776 43.8048 18.5808 47.3208 24.756 47.9712ZM21.9072 43.1616C20.6256 41.316 19.692 39.2256 19.1208 37.056C21.4416 36.612 23.7936 36.3168 26.16 36.264C26.16 39.6288 26.16 42.9936 26.16 46.3584C24.3624 45.9432 22.956 44.6136 21.9072 43.1616ZM27.84 46.3608C27.84 42.996 27.84 39.6288 27.84 36.264C30.2064 36.3216 32.5632 36.6072 34.884 37.0584C34.4664 38.6664 33.8184 40.2144 33.0264 41.6736C31.884 43.728 30.2304 45.7824 27.84 46.3608ZM12.1992 39.5904C13.8504 38.6712 15.6264 38.0064 17.436 37.4784C18.3672 40.4856 19.6704 43.4832 21.9144 45.7512C18.1488 44.736 14.748 42.5352 12.1992 39.5904ZM32.0856 45.7584C34.3272 43.4832 35.628 40.4832 36.5688 37.4736C38.376 38.0112 40.152 38.6688 41.8008 39.5904C39.252 42.5376 35.8488 44.7312 32.0856 45.7584ZM11.16 38.2536C9.00243 35.2128 7.77123 31.56 7.57923 27.84C10.404 27.84 13.2288 27.84 16.0536 27.84C16.1328 30.54 16.3824 33.252 17.0448 35.8752C15 36.4416 13.0272 37.2432 11.16 38.2536ZM36.9552 35.8752C37.6128 33.2496 37.8672 30.54 37.9488 27.84C40.7712 27.84 43.596 27.84 46.4208 27.84C46.2024 31.548 45.0336 35.2488 42.804 38.2416C40.9536 37.2288 38.988 36.4368 36.9552 35.8752ZM17.6976 27.84C20.5176 27.84 23.3376 27.84 26.16 27.84C26.1624 30.096 26.1528 32.352 26.1648 34.6056C23.652 34.6944 21.132 34.9128 18.6816 35.5056C18.0552 33 17.7888 30.4176 17.6976 27.84ZM27.84 34.6128C27.84 32.3568 27.84 30.0984 27.84 27.84C30.6624 27.84 33.4824 27.84 36.3048 27.84C36.228 30.4128 35.9088 32.9712 35.352 35.484C32.8824 34.9464 30.3648 34.6704 27.84 34.6128ZM7.57923 26.16C7.77843 22.44 8.99763 18.7776 11.172 15.744C13.0248 16.7712 15.0048 17.5536 17.0448 18.1248C16.3824 20.7504 16.1328 23.46 16.0536 26.16C13.2288 26.16 10.404 26.16 7.57923 26.16ZM17.6952 26.16C17.784 23.5824 18.072 21.0096 18.6672 18.4992C21.1224 19.08 23.6424 19.3152 26.16 19.3896C26.16 21.6456 26.16 23.9016 26.16 26.16C23.3376 26.16 20.5176 26.16 17.6952 26.16ZM27.84 26.16C27.8352 23.9064 27.8496 21.6528 27.8328 19.3968C29.5152 19.3008 31.2072 19.2552 32.8704 18.9696C33.7008 18.888 34.536 18.588 35.3496 18.5808C35.94 21.0648 36.2112 23.6112 36.3048 26.16C33.4824 26.16 30.6624 26.16 27.84 26.16ZM37.9488 26.16C37.8648 23.46 37.6152 20.7504 36.9552 18.1248C39 17.5584 40.9752 16.764 42.8376 15.744C44.9976 18.7848 46.224 22.44 46.4208 26.16C43.596 26.16 40.7712 26.16 37.9488 26.16ZM19.116 16.9416C19.5696 15.2136 20.2704 13.5528 21.1608 12.0048C22.284 10.0776 23.8944 8.18401 26.1576 7.644C26.1624 11.0088 26.16 14.3712 26.16 17.736C23.7936 17.6784 21.4368 17.3976 19.116 16.9416ZM27.84 17.736C27.84 14.3712 27.8376 11.0064 27.8424 7.64161C29.6472 8.0568 31.056 9.3984 32.1048 10.86C33.384 12.6984 34.3032 14.7816 34.884 16.9392C32.5632 17.4 30.2064 17.676 27.84 17.736ZM12.1968 14.412C14.7456 11.4672 18.1488 9.26881 21.9144 8.24641C19.668 10.5192 18.372 13.5192 17.4312 16.5264C15.624 15.9912 13.848 15.3264 12.1968 14.412ZM36.5712 16.5384C35.6352 13.524 34.3272 10.5216 32.0832 8.2392C35.8488 9.27121 39.2544 11.4624 41.8032 14.4144C40.152 15.3336 38.3712 15.9816 36.5712 16.5384Z" fill="#0D3A66"/>
</g>
</g>
</svg>
